<svg viewBox="0 0 512 512" xmlns="http://www.w3.org/2000/svg" role="img" aria-label="CatViral app icon">
  <defs>
    <linearGradient id="cvBg" x1="0" y1="0" x2="1" y2="1">
      <stop offset="0" stop-color="#A78BFA"/>
      <stop offset="0.55" stop-color="#B794F6"/>
      <stop offset="1" stop-color="#F0ABFC"/>
    </linearGradient>
    <radialGradient id="cvGlow" cx="0.3" cy="0.22" r="0.9">
      <stop offset="0" stop-color="#FBCFE8" stop-opacity="0.55"/>
      <stop offset="0.45" stop-color="#C4F1D9" stop-opacity="0.18"/>
      <stop offset="1" stop-color="#C4F1D9" stop-opacity="0"/>
    </radialGradient>
    <filter id="cvSoft" x="-20%" y="-20%" width="140%" height="140%">
      <feDropShadow dx="0" dy="10" stdDeviation="14" flood-color="#312244" flood-opacity="0.18"/>
    </filter>
  </defs>

  <rect x="16" y="16" width="480" height="480" rx="116" fill="url(#cvBg)"/>
  <rect x="16" y="16" width="480" height="480" rx="116" fill="url(#cvGlow)"/>

  <g filter="url(#cvSoft)">
    <path d="M146 150 L150 252 L248 196 Z" fill="#FFF8E7" stroke="#FFF8E7" stroke-width="26" stroke-linejoin="round"/>
    <path d="M366 150 L362 252 L264 196 Z" fill="#FFF8E7" stroke="#FFF8E7" stroke-width="26" stroke-linejoin="round"/>
    <path d="M165 182 L171 234 L214 200 Z" fill="#FBCFE8" stroke="#FBCFE8" stroke-width="12" stroke-linejoin="round"/>
    <path d="M347 182 L341 234 L298 200 Z" fill="#FBCFE8" stroke="#FBCFE8" stroke-width="12" stroke-linejoin="round"/>
    <circle cx="256" cy="292" r="138" fill="#FFF8E7"/>
  </g>

  <ellipse cx="210" cy="276" rx="15" ry="20" fill="#312244"/>
  <ellipse cx="302" cy="276" rx="15" ry="20" fill="#312244"/>
  <circle cx="215" cy="269" r="5" fill="#FFF8E7"/>
  <circle cx="307" cy="269" r="5" fill="#FFF8E7"/>

  <g stroke="#312244" stroke-width="6" stroke-linecap="round" opacity="0.28">
    <path d="M150 314 L200 320" fill="none"/>
    <path d="M150 340 L200 334" fill="none"/>
    <path d="M362 314 L312 320" fill="none"/>
    <path d="M362 340 L312 334" fill="none"/>
  </g>

  <path d="M246 306 L246 338 L282 322 Z" fill="#FBCFE8" stroke="#FBCFE8" stroke-width="11" stroke-linejoin="round"/>
</svg>
